# xmcd
#
# Track frame offsets: 
#        150
#        11830
#        27239
#        42154
#        53436
#        69624
#        83221
#        100994
#        117644
#        131550
#        148978
#        159102
#        174379
#        187026
#        207409
#
# Disc length: 2986 seconds
#
# Revision: 0
# Processed by: cddbd v1.5.2PL0 Copyright (c) Steve Scherf et al.
# Submitted via: ExactAudioCopy v1.0b1
#
DISCID=d30ba80f
DTITLE=Cedry2k - Cuvintecarevindeca
DYEAR=2010
DGENRE=Hip-hop
TTITLE0=Horror din Berceni
TTITLE1=Atitudine
TTITLE2=Iarna grea (cu Pacha Man)
TTITLE3=Mintea vizuala
TTITLE4=Explicit
TTITLE5=Din mormant
TTITLE6=In bataia pustii (cu Cabron)
TTITLE7=Cuvintecevindeca
TTITLE8=Clisee
TTITLE9=Decapitalism (cu Carbon si Pacha Man)
TTITLE10=Efect de boomerang
TTITLE11=Derobotizare
TTITLE12=Neprevazutul
TTITLE13=Actiune de noapte
TTITLE14=KOutro
EXTD=
EXTT0=
EXTT1=
EXTT2=
EXTT3=
EXTT4=
EXTT5=
EXTT6=
EXTT7=
EXTT8=
EXTT9=
EXTT10=
EXTT11=
EXTT12=
EXTT13=
EXTT14=
PLAYORDER=
